<?xml version="1.0" encoding="utf-8"?>
<!-- Generator: Adobe Illustrator 27.7.0, SVG Export Plug-In . SVG Version: 6.00 Build 0)  -->
<svg version="1.1" id="Layer_13" xmlns="http://www.w3.org/2000/svg" xmlns:xlink="http://www.w3.org/1999/xlink" x="0px" y="0px"
	 viewBox="0 0 85 85" style="enable-background:new 0 0 85 85;" xml:space="preserve">
<style type="text/css">
	.st0{fill:#333333;}
</style>
<path class="st0" d="M36.9,2.5c0.3,0.4,0.5,0.9,0.5,1.4c0,0.9-0.4,1.7-0.6,2.3C36,7.9,33.9,12.8,31.4,19c-3.2,7.8-5.7,14.8-7.7,21.1
	c2.8-2.4,6-5,9.4-7.8c10.2-8.2,17-13.1,26.1-19.5c4.4-3.1,7.8-5.3,9.8-6.4c0.9-0.5,1.7-0.6,2.5-0.6c0.4,0,0.7,0.1,1.1,0.2
	C73.8,6.2,75,7.1,75,8.4c0,1.4-1.5,2.2-3.9,3.9c-3.7,2.6-7.3,5.1-11.3,8C50.6,27.1,42,33.8,33.2,41.1c-5.9,4.8-10.9,9.5-12.6,11.8
	c-0.2,0.2-0.4,0.6-0.6,0.8c-0.3,1.4-0.6,2.8-0.8,4.2c0.8,1,2.5,2.1,5.5,3.5c5.6,2.5,14.7,5.7,20.1,8.9c1.7,0.9,4,2.4,4,3.6
	c0,0.6-0.4,1.1-1.4,1.1c-0.6,0-1.3-0.2-2.3-0.5c-1.4-0.5-17.8-7.1-20.7-8.3c-1.5-0.6-4-1.9-6.2-3.1c-0.4,3-0.6,5.9-0.6,8.6
	c0,1.7,0.2,3.2,0.3,4.8c0.2,2.4,0.4,3.4,0.4,4V81c-0.1,0.6-0.6,1-1.4,1c-0.9,0-2.4-0.9-3.5-1.7c-0.7-0.5-1.6-1.1-2.3-2.4
	c-1.3-2.1-1.7-6.6-1.7-10v-0.5c0-10.2,4.3-26.9,9.9-41.8c3.5-9.4,7.7-18.9,9.5-21.9c1.2-1.9,2.1-2.5,3.7-2.5c0.2,0,0.5-0.1,0.7-0.1
	C34.8,1.2,36.3,1.7,36.9,2.5L36.9,2.5z"/>
</svg>
