<?xml version="1.0" encoding="utf-8"?>
<!-- Generator: Adobe Illustrator 27.7.0, SVG Export Plug-In . SVG Version: 6.00 Build 0)  -->
<svg version="1.1" id="Layer_13" xmlns="http://www.w3.org/2000/svg" xmlns:xlink="http://www.w3.org/1999/xlink" x="0px" y="0px"
	 viewBox="0 0 185 85" style="enable-background:new 0 0 185 85;" xml:space="preserve">
<style type="text/css">
	.st0{fill:#333333;}
</style>
<path class="st0" d="M18.8,1.8c0.2,0.3,0.3,0.6,0.3,0.9c0,0.6-0.3,1.2-0.4,1.5c-0.5,1.1-2,4.4-3.6,8.5c-2.1,5.2-3.8,9.9-5.1,14
	c1.9-1.6,4-3.3,6.2-5.2c6.8-5.4,11.3-8.7,17.4-13c3-2.1,5.2-3.5,6.5-4.3C40.7,4.1,41.3,4,41.7,4c0.3,0,0.5,0.1,0.7,0.1
	c0.8,0.2,1.6,0.8,1.6,1.6c0,0.9-1,1.5-2.6,2.6c-2.4,1.7-4.8,3.4-7.5,5.3c-6.2,4.5-11.9,9-17.8,13.9c-3.9,3.2-7.2,6.3-8.4,7.9
	c-0.1,0.2-0.3,0.4-0.4,0.5c-0.2,1-0.4,1.8-0.5,2.8c0.5,0.7,1.7,1.4,3.6,2.3c3.8,1.7,9.8,3.8,13.4,5.9c1.1,0.6,2.7,1.6,2.7,2.4
	c0,0.4-0.3,0.7-0.9,0.7c-0.4,0-0.8-0.1-1.5-0.3c-1-0.3-11.8-4.7-13.8-5.5c-1-0.4-2.7-1.3-4.1-2.1c-0.3,2-0.4,3.9-0.4,5.7
	C6,49,6.1,50,6.2,51.1c0.2,1.6,0.3,2.3,0.3,2.7v0.3c-0.1,0.4-0.4,0.7-0.9,0.7c-0.6,0-1.6-0.6-2.3-1.2c-0.5-0.3-1-0.7-1.5-1.6
	c-0.8-1.4-1.2-4.4-1.2-6.7v-0.3c0-6.8,2.8-17.9,6.6-27.8C9.4,11,12.2,4.7,13.4,2.7c0.8-1.3,1.4-1.6,2.4-1.7C16,1,16.2,1,16.3,1
	C17.4,1,18.4,1.3,18.8,1.8L18.8,1.8z"/>
<path class="st0" d="M29.1,47.3c-1.5-1.3-2.3-3.6-2.4-6.2v-0.6c0-1.8,0.3-3.6,1.2-5.7c2-5,4.6-7.9,7.8-8.6c0.5-0.1,0.9-0.2,1.4-0.2
	c1.7,0,3.4,0.6,4.2,1.5c0.6,0.7,1,1.9,1,3.1c0,0.2,0,0.3,0,0.5c-0.2,2.1-1.3,4.1-3.8,6.5c-2.2,2.1-4.5,4-7.3,5
	c0,0.5,0.3,1.5,0.7,2.3c0.5,1.1,1.6,2.2,2.5,2.5c0.5,0.2,1.4,0.5,2.5,0.5h0.6c1-0.1,1.5-0.2,1.8-0.2s0.4,0,0.5,0.1
	c0.2,0.1,0.2,0.3,0.2,0.5c0,0.5-0.4,1.1-1.1,1.4c-0.8,0.4-1.7,0.6-2.7,0.6c-0.5,0-1,0-1.4-0.1C32.6,49.9,30.2,48.4,29.1,47.3
	L29.1,47.3z M38.1,29.7c0-0.2,0-0.3,0-0.5c0-0.2-0.1-0.3-0.3-0.3c-0.7,0-2.1,1-2.6,1.5c-1.1,1.1-1.6,1.9-2.5,3.6
	c-0.8,1.6-1.2,3-1.5,4.4c0.5-0.3,1-0.7,1.4-1C36.1,34.8,38.1,31.9,38.1,29.7L38.1,29.7z"/>
<path class="st0" d="M43.1,52.1C43,51.1,43,50,43,48.9c0-2.1,0.2-4.2,0.4-6.2c1-8,3.2-16.1,5.9-23.6c1.9-5.3,4.8-12.1,6.3-14.9
	c0.7-1.3,1.1-1.8,2.2-1.8h0.5c1.6,0,3.3,0.7,3.3,2.2c0,0.6-0.5,1.9-1.2,3.5c-1.7,4.2-3.6,8.7-5,12.4C52.6,28,50.2,36,48.7,43.2
	c-0.6,3.1-1.3,6.7-1.3,9.5c0,0.7,0.1,1.4,0.2,2c0.3,2.1,0.7,3.1,1.5,3.9c0.6,0.6,0.8,0.8,0.7,1.3c0,0.2-0.4,0.3-0.7,0.3
	c-0.6,0-1.6-0.3-2.2-0.8C44.7,58,43.6,56.5,43.1,52.1L43.1,52.1z"/>
<path class="st0" d="M54.2,58.5c-0.1-0.6-0.2-1.2-0.2-1.8c0-3.9,2.4-8,4.5-10.5c1.6-2.1,4.9-4.9,5.7-5.4c-0.1-0.3-1.2-3-2-4.6
	c-2-4.2-2.4-5.5-2.4-7.8c0-3,1.3-6,3.6-8.5c1.5-1.6,3.3-2.7,5.2-2.7c0.5,0,1,0.1,1.5,0.3c1.5,0.4,2.7,1.4,3.4,2.6
	c0.6,1.1,0.9,2.4,0.9,3.5c0,0.4-0.1,0.7-0.1,1c-0.4,1.9-1.4,4-2.2,4.6c-0.5,0.5-1.2,0.6-1.7,0.6c-0.5,0-0.9-0.1-1.2-0.3
	c-0.6-0.4-0.5-0.6,0.1-1.3c0.7-0.7,1.3-1.9,1.8-3.2c0.2-0.6,0.3-1.3,0.3-2c0-1.4-0.4-2.7-1.2-3.3c-0.2-0.2-0.4-0.2-0.6-0.2
	c-0.8,0-1.7,0.9-2.1,1.3c-1.9,2-3.3,5-3.5,7.5V29c0,1.4,0.4,3,1.4,5c1.1,2.4,1.8,3.9,2.1,4.4c4.1-2.4,8.3-4.1,12-5.1
	c0.9-0.2,1.6-0.4,2.2-0.4c0.3,0,0.5,0.1,0.7,0.2c0.4,0.3,0.1,0.7-0.2,1c-0.8,0.6-3.3,1.7-4.9,2.5c-2.5,1.2-6.4,3.1-8.6,4.6
	c0.7,2,1.4,4.6,1.8,6.9c0.2,1.3,0.3,2.5,0.3,3.8c0,1.3-0.1,2.5-0.3,3.7c-0.5,3.2-1.6,5.5-3.2,7.1c-1.1,1.1-2.4,1.7-3.3,2
	c-0.6,0.2-1.2,0.2-1.7,0.2c-1.3,0-2.4-0.4-3.5-1C56.3,62.6,54.8,60.9,54.2,58.5L54.2,58.5z M66.3,52.9c0.1-0.5,0.1-1.1,0.1-1.7
	c0-1.4-0.1-3-0.3-4c-0.2-1.2-0.6-2.8-0.8-3.3c-0.2,0.1-0.8,0.7-1.5,1.4c-2.3,2.2-3.7,4.2-4.9,6.5c-1.1,2-1.6,3.8-1.6,5.5
	c0,1.7,0.6,3.2,1.7,4.3c0.6,0.6,1.4,1.1,2.2,1.1c0.4,0,0.7,0,1.1-0.3C64,61.3,65.9,57.3,66.3,52.9L66.3,52.9z"/>
<path class="st0" d="M80.8,47.3c-1.5-1.3-2.3-3.6-2.4-6.2v-0.6c0-1.8,0.3-3.6,1.2-5.7c1.9-5,4.6-7.9,7.8-8.6
	c0.5-0.1,0.9-0.2,1.4-0.2c1.7,0,3.4,0.6,4.2,1.5c0.6,0.7,1,1.9,1,3.1c0,0.2-0.1,0.3-0.1,0.5c-0.2,2.1-1.3,4.1-3.8,6.5
	c-2.2,2.1-4.5,4-7.3,5c0.1,0.5,0.3,1.5,0.7,2.3c0.5,1.1,1.6,2.2,2.5,2.5c0.5,0.2,1.4,0.5,2.5,0.5h0.6c0.9-0.1,1.5-0.2,1.8-0.2
	s0.4,0,0.5,0.1c0.2,0.1,0.2,0.3,0.2,0.5c0,0.5-0.4,1.1-1.1,1.4c-0.8,0.4-1.7,0.6-2.7,0.6c-0.5,0-0.9,0-1.4-0.1
	C84.3,49.9,82,48.4,80.8,47.3L80.8,47.3z M89.9,29.7c0-0.2-0.1-0.3-0.1-0.5c0-0.2-0.1-0.3-0.3-0.3c-0.7,0-2.1,1-2.6,1.5
	c-1.1,1.1-1.6,1.9-2.5,3.6c-0.8,1.6-1.2,3-1.5,4.4c0.5-0.3,1-0.7,1.4-1C87.8,34.8,89.9,31.9,89.9,29.7L89.9,29.7z"/>
<path class="st0" d="M113.2,26.7c1.7,0,3.8,0.7,4.5,2.2c0.6,1.3,0.9,2.9,0.9,5.1v0.5c0.1,0,0.1-0.1,0.2-0.1c1.8-0.6,3.5-1.3,5.9-1.3
	c1.1,0,1.7,0.2,2,0.3c0.7,0.2,1,0.8,0.6,1.1s-1.2,0.5-2.3,0.8c-2.3,0.6-4.8,1.6-6.4,2.5c-0.1,2.6-0.4,5.1-0.6,6.5
	c-1.2,7.8-3.6,16.4-6.4,23c-1.9,4.6-5.3,12-9.6,14.7c-1.1,0.7-2.2,1-3.4,1s-2.4-0.3-3.5-1.1c-2.2-1.5-3.3-4.5-3.3-8.1
	c0-0.4,0.1-0.8,0.1-1.2c0.4-5.1,2.1-9.8,4.1-14.1c2.1-4.4,6.8-11.6,11-15.7c2.1-2.1,5-4.5,7.9-6.3c0.1-0.9,0.1-1.7,0.1-2.6
	s0-1.6-0.1-2.5c-0.1-1.2-0.3-1.6-0.5-1.7c-0.1,0-0.3-0.1-0.4-0.1c-0.4,0-0.9,0.2-1.6,0.8c-2.4,2.1-4.8,5.9-7,9.9
	c-2.7,4.8-3.2,5.4-4,6.3c-0.5,0.6-1.1,1-1.7,1h-0.2c-1.3-0.2-2.7-0.7-3.5-1.7c-0.7-1-1.2-3-1.2-5.2s0.4-4.6,1.4-7.2
	c0.6-1.9,1.8-4.2,2.6-4.8c0.6-0.4,1.2-0.6,1.8-0.6c0.3,0,0.6,0,0.9,0.1c0.8,0.2,1.5,0.5,1.6,1c0.1,0.2,0.1,0.4,0.1,0.5
	c0,0.4-0.1,0.8-0.3,1.1c-1.2,1.9-2.1,4.4-2.7,6.6c-0.5,1.9-0.9,3.9-0.9,4.8c0,0.3,0.1,0.5,0.1,0.5c0.3,0,2.4-3.8,3.5-5.8
	c4-6.9,6.6-9.7,9.6-10.1C112.6,26.7,112.8,26.7,113.2,26.7L113.2,26.7L113.2,26.7z M111.1,43.2c-3.6,3.5-6.7,7.3-9,10.9
	c-2.1,3.2-4.5,8-5.8,12.3c-0.9,3-1.4,5.8-1.4,8.1c0,1.1,0.2,2.2,0.4,3.2c0.3,1.3,1.2,2.9,2.5,2.9c0.4,0,0.9-0.2,1.4-0.5
	c1.8-1.4,3.1-3.6,4.6-6.4c3.5-6.4,6.4-13.6,8.4-22.4c0.8-3.5,1.6-7.2,2.1-10.9C113.2,41.3,112.2,42.2,111.1,43.2L111.1,43.2z"/>
<path class="st0" d="M159.2,1.8c0.2,0.3,0.3,0.6,0.3,0.9c0,0.6-0.3,1.2-0.4,1.5c-0.5,1.1-1.9,4.4-3.6,8.5c-2.1,5.2-3.8,9.9-5.1,14
	c1.9-1.6,4-3.3,6.2-5.2c6.8-5.4,11.3-8.7,17.4-13c2.9-2.1,5.2-3.5,6.5-4.3c0.6-0.3,1.2-0.4,1.6-0.4c0.3,0,0.5,0.1,0.7,0.1
	c0.8,0.2,1.6,0.8,1.6,1.6c0,0.9-1,1.5-2.6,2.6c-2.4,1.7-4.9,3.4-7.5,5.3c-6.2,4.5-11.9,9-17.8,13.9c-3.9,3.2-7.2,6.3-8.4,7.9
	c-0.1,0.2-0.3,0.4-0.4,0.5c-0.2,1-0.4,1.8-0.5,2.8c0.5,0.7,1.7,1.4,3.6,2.3c3.8,1.7,9.8,3.8,13.4,5.9c1.1,0.6,2.7,1.6,2.7,2.4
	c0,0.4-0.3,0.7-0.9,0.7c-0.4,0-0.8-0.1-1.5-0.3c-0.9-0.3-11.8-4.7-13.8-5.5c-1-0.4-2.7-1.3-4.1-2.1c-0.3,2-0.4,3.9-0.4,5.7
	c0,1.1,0.1,2.2,0.2,3.2c0.2,1.6,0.3,2.3,0.3,2.7v0.3c-0.1,0.4-0.4,0.7-0.9,0.7c-0.6,0-1.6-0.6-2.3-1.2c-0.5-0.3-1.1-0.7-1.5-1.6
	c-0.8-1.4-1.2-4.4-1.2-6.7v-0.3c0-6.8,2.9-17.9,6.6-27.8c2.3-6.2,5.1-12.6,6.3-14.6c0.8-1.3,1.4-1.6,2.4-1.7c0.2,0,0.3-0.1,0.5-0.1
	C157.8,1,158.8,1.3,159.2,1.8L159.2,1.8z"/>
</svg>
