<?xml version="1.0" encoding="UTF-8"?><svg id="Layer_13" xmlns="http://www.w3.org/2000/svg" viewBox="0 0 185 85"><defs><style>.cls-1{fill:#333;}.cls-2{fill:#c6f;}</style></defs><path class="cls-2" d="m16.43,57.07c-.66-.56-.94-1.36-1.13-2.21-.14-.56-.24-1.32-.24-2.16,0-2.02.42-4.79,1.13-8.08h-.33c-.85,0-1.55-.19-2.12-.42-.85-.38-1.6-.94-1.83-1.93,0-.14-.05-.23-.05-.38,0-1.79,2.58-3.81,4.79-4.32.47-.09.99-.23,1.41-.23,1.22-4.09,2.73-8.6,4.56-13.16,1.69-4.23,2.91-7,4.98-11.42.99-2.07,2.77-5.4,3.38-6.34.47-.71,1.03-.85,1.69-.89h.23c.71,0,1.97.19,2.58.7.28.28.56.52.56,1.08,0,.14-.05.33-.05.52-.19.99-1.13,2.4-2.35,5.03-1.41,2.96-3.1,6.67-5.22,11.84-1.93,4.7-3.62,9.49-4.93,13.77,1.65-.99,3.2-2.21,4.98-3.57,1.83-1.41,3.67-3.01,5.64-4.89,1.93-1.79,2.91-2.73,3.71-3.05.33-.14.66-.23.99-.23.24,0,.47.05.75.09.52.14.8.42.8.85,0,.05-.05.14-.05.24-.23,1.13-4.89,5.5-9.45,9.07-1.93,1.5-3.71,2.82-5.59,4.04.19.24.38.47.52.66.61.75,1.6,1.93,2.4,2.82,1.69,1.93,2.91,2.96,4.28,3.62,1.22.61,2.49.8,3.48.8h.19c.66,0,1.22-.09,1.64-.09.14,0,.28,0,.38.05.28.09.42.56.14.99-.28.38-1.13.75-1.97.89-.33.05-.66.09-.99.09-1.55,0-3.1-.56-4.56-1.36-1.32-.75-2.58-1.6-3.95-2.91-1.08-1.03-2.49-2.77-3.24-3.76-.14-.19-.28-.38-.38-.52-.28.14-.61.28-.94.42-.89,3.29-1.69,6.82-2.02,10.15-.05.71-.09,1.36-.09,1.93,0,.8.05,1.46.19,2.16.09.42.19.8.19,1.08,0,.19-.05.38-.14.52-.19.28-.71.33-1.32.09-.71-.28-1.93-.85-2.68-1.55Zm-1.17-15.74c-.47.47-.66.94-.23,1.03h.09c.33,0,.99-.19,1.69-.42.14-.61.33-1.22.47-1.83-.89.33-1.41.61-2.02,1.22Z"/><path class="cls-1" d="m39.89,47.48c-1.32-1.17-2.07-3.24-2.16-5.5v-.52c0-1.64.28-3.24,1.03-5.08,1.74-4.42,4.09-7.05,6.91-7.66.42-.09.8-.14,1.22-.14,1.5,0,3.01.52,3.71,1.32.56.61.89,1.69.89,2.73,0,.14-.05.28-.05.42-.14,1.83-1.17,3.67-3.43,5.83-1.93,1.83-4,3.53-6.53,4.42.05.47.28,1.36.61,2.07.47.99,1.41,1.97,2.21,2.26.42.14,1.22.42,2.21.42h.52c.85-.09,1.36-.14,1.65-.14s.38.05.47.09c.14.09.19.28.19.42,0,.42-.38.94-.99,1.27-.71.33-1.55.52-2.44.52-.42,0-.85-.05-1.22-.09-1.69-.33-3.81-1.69-4.79-2.63Zm8.04-15.74c0-.14-.05-.28-.05-.42,0-.19-.09-.28-.28-.28-.61,0-1.83.89-2.3,1.36-.94.99-1.46,1.69-2.26,3.24-.75,1.46-1.08,2.68-1.36,3.95.47-.28.89-.61,1.27-.89,3.2-2.4,4.98-4.93,4.98-6.96Z"/><path class="cls-1" d="m52.39,51.76c-.09-.94-.14-1.88-.14-2.87,0-1.88.19-3.71.38-5.5.89-7.14,2.87-14.33,5.26-21.05,1.69-4.7,4.28-10.76,5.59-13.25.66-1.17.99-1.6,1.97-1.65h.42c1.46,0,2.91.66,2.91,1.97,0,.56-.47,1.69-1.08,3.15-1.55,3.71-3.24,7.71-4.46,11.04-2.4,6.63-4.56,13.77-5.88,20.21-.56,2.77-1.13,5.92-1.13,8.51,0,.66.09,1.22.14,1.79.24,1.83.61,2.73,1.36,3.48.52.52.75.71.61,1.13-.05.19-.33.28-.61.28-.56,0-1.41-.28-1.97-.71-1.93-1.32-2.96-2.63-3.38-6.53Z"/><path class="cls-1" d="m60.52,57.44c-.09-.52-.14-1.03-.14-1.6,0-3.48,2.16-7.1,3.99-9.4,1.46-1.83,4.32-4.37,5.08-4.84-.09-.24-1.03-2.68-1.74-4.14-1.79-3.76-2.12-4.89-2.12-6.91,0-2.63,1.13-5.31,3.24-7.57,1.36-1.46,2.91-2.4,4.65-2.4.47,0,.89.09,1.36.23,1.36.38,2.44,1.22,3.05,2.35.52.99.8,2.16.8,3.15,0,.33-.05.61-.09.89-.33,1.65-1.22,3.52-1.97,4.14-.47.42-1.03.56-1.5.56-.42,0-.8-.09-1.03-.23-.56-.33-.47-.56.09-1.13.66-.66,1.17-1.65,1.6-2.87.19-.56.24-1.18.24-1.79,0-1.27-.38-2.4-1.08-2.91-.19-.14-.33-.19-.52-.19-.75,0-1.5.8-1.88,1.17-1.69,1.74-2.91,4.42-3.1,6.72v.47c0,1.22.38,2.63,1.22,4.46.99,2.11,1.6,3.48,1.83,3.9,3.67-2.12,7.43-3.67,10.67-4.51.8-.19,1.46-.38,1.93-.38.28,0,.47.09.66.19.38.23.09.66-.19.85-.75.52-2.96,1.55-4.37,2.26-2.21,1.08-5.69,2.73-7.66,4.14.66,1.79,1.27,4.09,1.6,6.16.19,1.13.23,2.26.23,3.34,0,1.17-.09,2.26-.23,3.29-.47,2.87-1.46,4.93-2.87,6.34-.94.94-2.16,1.5-2.96,1.74-.56.14-1.08.19-1.55.19-1.17,0-2.16-.38-3.1-.85-2.3-1.18-3.67-2.68-4.14-4.84Zm10.71-4.98c.05-.42.05-.94.05-1.5,0-1.22-.09-2.63-.23-3.57-.19-1.08-.56-2.49-.71-2.96-.19.09-.75.61-1.36,1.22-2.02,1.97-3.29,3.71-4.37,5.78-.94,1.79-1.41,3.43-1.41,4.89,0,1.55.52,2.82,1.5,3.81.56.56,1.22.94,1.93.94.33,0,.61-.05.94-.23,1.6-.89,3.29-4.51,3.67-8.37Z"/><path class="cls-1" d="m84.21,47.48c-1.32-1.17-2.07-3.24-2.16-5.5v-.52c0-1.64.28-3.24,1.03-5.08,1.74-4.42,4.09-7.05,6.91-7.66.42-.09.8-.14,1.22-.14,1.5,0,3.01.52,3.71,1.32.56.61.89,1.69.89,2.73,0,.14-.05.28-.05.42-.14,1.83-1.17,3.67-3.43,5.83-1.93,1.83-4,3.53-6.53,4.42.05.47.28,1.36.61,2.07.47.99,1.41,1.97,2.21,2.26.42.14,1.22.42,2.21.42h.52c.85-.09,1.36-.14,1.65-.14s.38.05.47.09c.14.09.19.28.19.42,0,.42-.38.94-.99,1.27-.71.33-1.55.52-2.44.52-.42,0-.85-.05-1.22-.09-1.69-.33-3.81-1.69-4.79-2.63Zm8.04-15.74c0-.14-.05-.28-.05-.42,0-.19-.09-.28-.28-.28-.61,0-1.83.89-2.3,1.36-.94.99-1.46,1.69-2.26,3.24-.75,1.46-1.08,2.68-1.36,3.95.47-.28.89-.61,1.27-.89,3.2-2.4,4.98-4.93,4.98-6.96Z"/><path class="cls-1" d="m113.02,29.1c1.55,0,3.43.61,4.04,1.93.56,1.18.8,2.54.8,4.56v.42s.09-.09.14-.09c1.65-.56,3.15-1.17,5.26-1.17.99,0,1.55.19,1.79.24.66.19.89.7.52.99-.38.28-1.08.42-2.07.7-2.07.56-4.23,1.41-5.73,2.21-.09,2.35-.33,4.51-.52,5.83-1.03,6.91-3.24,14.62-5.69,20.49-1.69,4.14-4.75,10.67-8.51,13.07-.94.61-1.97.89-3.05.89s-2.12-.28-3.1-.94c-1.97-1.32-2.96-4-2.96-7.19,0-.33.05-.71.05-1.08.33-4.56,1.83-8.69,3.67-12.6,1.83-3.9,6.06-10.29,9.82-14,1.83-1.83,4.42-4.04,7-5.64.05-.8.05-1.55.05-2.3s0-1.46-.05-2.21c-.09-1.03-.28-1.46-.47-1.55-.09-.05-.24-.09-.38-.09-.33,0-.8.19-1.41.71-2.11,1.83-4.23,5.22-6.2,8.79-2.4,4.23-2.82,4.84-3.53,5.64-.47.52-.99.85-1.5.85h-.19c-1.17-.14-2.44-.66-3.1-1.5-.66-.85-1.03-2.63-1.03-4.61s.38-4.09,1.22-6.39c.56-1.65,1.6-3.76,2.3-4.28.52-.38,1.03-.56,1.6-.56.24,0,.56.05.8.09.7.14,1.32.42,1.46.94.05.14.05.33.05.47,0,.33-.09.71-.28.99-1.03,1.69-1.88,3.95-2.44,5.87-.47,1.69-.8,3.48-.8,4.28,0,.23.05.42.09.42.24,0,2.12-3.43,3.1-5.12,3.52-6.11,5.87-8.6,8.55-8.98.19,0,.38-.05.61-.05h.09Zm-1.83,14.66c-3.2,3.1-5.97,6.53-7.99,9.68-1.83,2.87-4.04,7.14-5.17,10.95-.8,2.68-1.27,5.12-1.27,7.24,0,.99.14,1.93.33,2.82.28,1.13,1.03,2.58,2.26,2.58.38,0,.8-.14,1.27-.47,1.65-1.22,2.77-3.2,4.14-5.69,3.1-5.69,5.73-12.12,7.47-19.93.71-3.1,1.41-6.39,1.88-9.68-1.03.8-1.97,1.6-2.91,2.49Z"/><path class="cls-2" d="m139.9,57.07c-.66-.56-.94-1.36-1.13-2.21-.14-.56-.24-1.32-.24-2.16,0-2.02.42-4.79,1.13-8.08h-.33c-.85,0-1.55-.19-2.12-.42-.85-.38-1.6-.94-1.83-1.93,0-.14-.05-.23-.05-.38,0-1.79,2.58-3.81,4.79-4.32.47-.09.99-.23,1.41-.23,1.22-4.09,2.73-8.6,4.56-13.16,1.69-4.23,2.91-7,4.98-11.42.99-2.07,2.77-5.4,3.38-6.34.47-.71,1.03-.85,1.69-.89h.23c.71,0,1.97.19,2.58.7.28.28.56.52.56,1.08,0,.14-.05.33-.05.52-.19.99-1.13,2.4-2.35,5.03-1.41,2.96-3.1,6.67-5.22,11.84-1.93,4.7-3.62,9.49-4.93,13.77,1.65-.99,3.2-2.21,4.98-3.57,1.83-1.41,3.67-3.01,5.64-4.89,1.93-1.79,2.91-2.73,3.71-3.05.33-.14.66-.23.99-.23.24,0,.47.05.75.09.52.14.8.42.8.85,0,.05-.05.14-.05.24-.23,1.13-4.89,5.5-9.45,9.07-1.93,1.5-3.71,2.82-5.59,4.04.19.24.38.47.52.66.61.75,1.6,1.93,2.4,2.82,1.69,1.93,2.91,2.96,4.28,3.62,1.22.61,2.49.8,3.48.8h.19c.66,0,1.22-.09,1.64-.09.14,0,.28,0,.38.05.28.09.42.56.14.99-.28.38-1.13.75-1.97.89-.33.05-.66.09-.99.09-1.55,0-3.1-.56-4.56-1.36-1.32-.75-2.58-1.6-3.95-2.91-1.08-1.03-2.49-2.77-3.24-3.76-.14-.19-.28-.38-.38-.52-.28.14-.61.28-.94.42-.89,3.29-1.69,6.82-2.02,10.15-.05.71-.09,1.36-.09,1.93,0,.8.05,1.46.19,2.16.09.42.19.8.19,1.08,0,.19-.05.38-.14.52-.19.28-.71.33-1.32.09-.71-.28-1.93-.85-2.68-1.55Zm-1.17-15.74c-.47.47-.66.94-.23,1.03h.09c.33,0,.99-.19,1.69-.42.14-.61.33-1.22.47-1.83-.89.33-1.41.61-2.02,1.22Z"/><path class="cls-1" d="m166.36,48.09c-.19-.28-.28-.56-.28-.89,0-.23.05-.56.14-.8.19-.61.8-1.27,1.79-1.27h.19c.99.05,1.55.42,1.79,1.08.09.23.14.52.14.8,0,.61-.23,1.27-.66,1.69-.33.33-.75.52-1.17.52-.14,0-.28-.05-.42-.05-.61-.09-1.22-.61-1.5-1.08Z"/></svg>