<?xml version="1.0" encoding="UTF-8"?><svg id="Layer_13" xmlns="http://www.w3.org/2000/svg" viewBox="0 0 185 85"><defs><style>.cls-1{fill:#f30;}.cls-2{fill:#333;}</style></defs><path class="cls-2" d="m18.78,1.84c.21.26.32.63.32.95,0,.58-.26,1.16-.42,1.53-.53,1.11-1.95,4.38-3.59,8.5-2.11,5.22-3.8,9.87-5.12,14.04,1.85-1.58,3.96-3.32,6.23-5.17,6.81-5.44,11.29-8.71,17.36-12.98,2.96-2.06,5.17-3.54,6.54-4.27.58-.32,1.16-.42,1.64-.42.26,0,.47.05.74.11.84.21,1.64.79,1.64,1.64,0,.95-1,1.48-2.59,2.59-2.43,1.74-4.85,3.38-7.49,5.33-6.17,4.54-11.87,9.02-17.78,13.88-3.91,3.22-7.23,6.33-8.39,7.86-.11.16-.26.37-.37.53-.21.95-.37,1.85-.53,2.8.53.69,1.69,1.42,3.64,2.32,3.75,1.69,9.76,3.8,13.4,5.91,1.11.63,2.69,1.58,2.69,2.37,0,.42-.26.74-.9.74-.37,0-.84-.11-1.53-.32-.95-.32-11.82-4.7-13.77-5.54-1-.42-2.69-1.27-4.12-2.06-.26,2.01-.42,3.91-.42,5.7,0,1.11.11,2.16.21,3.22.16,1.58.26,2.27.26,2.69v.32c-.05.37-.42.69-.95.69-.58,0-1.58-.63-2.32-1.16-.47-.32-1.05-.74-1.53-1.58-.84-1.43-1.16-4.38-1.16-6.65v-.32c0-6.81,2.85-17.89,6.6-27.81,2.32-6.23,5.12-12.56,6.33-14.56.79-1.27,1.37-1.64,2.43-1.69.16,0,.32-.05.48-.05,1.05,0,2.06.37,2.48.9Z"/><path class="cls-2" d="m29.07,47.33c-1.48-1.32-2.32-3.64-2.43-6.17v-.58c0-1.85.32-3.64,1.16-5.7,1.95-4.96,4.59-7.92,7.76-8.6.48-.11.9-.16,1.37-.16,1.69,0,3.38.58,4.17,1.48.63.69,1,1.9,1,3.06,0,.16-.05.32-.05.47-.16,2.06-1.32,4.12-3.85,6.54-2.16,2.06-4.49,3.96-7.34,4.96.05.53.32,1.53.69,2.32.53,1.11,1.58,2.22,2.48,2.53.47.16,1.37.47,2.48.47h.58c.95-.11,1.53-.16,1.85-.16s.42.05.53.11c.16.11.21.32.21.47,0,.47-.42,1.06-1.11,1.42-.79.37-1.74.58-2.74.58-.47,0-.95-.05-1.37-.11-1.9-.37-4.27-1.9-5.38-2.96Zm9.02-17.68c0-.16-.05-.32-.05-.47,0-.21-.11-.32-.32-.32-.69,0-2.06,1-2.59,1.53-1.06,1.11-1.64,1.9-2.53,3.64-.84,1.64-1.21,3.01-1.53,4.43.53-.32,1-.69,1.42-1,3.59-2.69,5.59-5.54,5.59-7.81Z"/><path class="cls-2" d="m43.11,52.13c-.11-1.06-.16-2.11-.16-3.22,0-2.11.21-4.17.42-6.17,1-8.02,3.22-16.1,5.91-23.64,1.9-5.28,4.8-12.08,6.28-14.88.74-1.32,1.11-1.79,2.22-1.85h.48c1.63,0,3.27.74,3.27,2.22,0,.63-.53,1.9-1.21,3.54-1.74,4.17-3.64,8.65-5.01,12.4-2.69,7.44-5.12,15.46-6.6,22.69-.63,3.11-1.27,6.65-1.27,9.55,0,.74.11,1.37.16,2.01.26,2.06.69,3.06,1.53,3.9.58.58.84.79.69,1.27-.05.21-.37.32-.69.32-.63,0-1.58-.32-2.22-.79-2.16-1.48-3.32-2.96-3.8-7.33Z"/><path class="cls-2" d="m54.24,58.52c-.11-.58-.16-1.16-.16-1.79,0-3.9,2.43-7.97,4.49-10.55,1.64-2.06,4.86-4.91,5.7-5.44-.11-.26-1.16-3.01-1.95-4.64-2.01-4.22-2.38-5.49-2.38-7.76,0-2.96,1.27-5.96,3.64-8.5,1.53-1.64,3.27-2.69,5.22-2.69.53,0,1,.11,1.53.26,1.53.42,2.74,1.37,3.43,2.64.58,1.11.9,2.43.9,3.54,0,.37-.05.69-.11,1-.37,1.85-1.37,3.96-2.22,4.64-.53.48-1.16.63-1.69.63-.47,0-.9-.11-1.16-.26-.63-.37-.53-.63.11-1.27.74-.74,1.32-1.85,1.8-3.22.21-.63.26-1.32.26-2.01,0-1.42-.42-2.69-1.21-3.27-.21-.16-.37-.21-.58-.21-.84,0-1.69.9-2.11,1.32-1.9,1.95-3.27,4.96-3.48,7.55v.53c0,1.37.42,2.96,1.37,5.01,1.11,2.37,1.79,3.9,2.06,4.38,4.12-2.37,8.34-4.12,11.98-5.07.9-.21,1.64-.42,2.16-.42.32,0,.53.11.74.21.42.26.11.74-.21.95-.84.58-3.32,1.74-4.91,2.53-2.48,1.21-6.39,3.06-8.6,4.64.74,2.01,1.42,4.59,1.79,6.91.21,1.27.26,2.53.26,3.75,0,1.32-.11,2.53-.26,3.69-.53,3.22-1.64,5.54-3.22,7.12-1.05,1.06-2.43,1.69-3.32,1.95-.63.16-1.21.21-1.74.21-1.32,0-2.43-.42-3.48-.95-2.59-1.32-4.12-3.01-4.64-5.44Zm12.03-5.59c.05-.47.05-1.06.05-1.69,0-1.37-.11-2.96-.26-4.01-.21-1.21-.63-2.8-.79-3.33-.21.11-.84.69-1.53,1.37-2.27,2.22-3.69,4.17-4.91,6.49-1.06,2.01-1.58,3.85-1.58,5.49,0,1.74.58,3.17,1.69,4.27.63.63,1.37,1.06,2.16,1.06.37,0,.69-.05,1.06-.26,1.79-1,3.69-5.07,4.12-9.39Z"/><path class="cls-2" d="m80.84,47.33c-1.48-1.32-2.32-3.64-2.43-6.17v-.58c0-1.85.32-3.64,1.16-5.7,1.95-4.96,4.59-7.92,7.76-8.6.48-.11.9-.16,1.37-.16,1.69,0,3.38.58,4.17,1.48.63.69,1,1.9,1,3.06,0,.16-.05.32-.05.47-.16,2.06-1.32,4.12-3.85,6.54-2.16,2.06-4.49,3.96-7.34,4.96.05.53.32,1.53.69,2.32.53,1.11,1.58,2.22,2.48,2.53.47.16,1.37.47,2.48.47h.58c.95-.11,1.53-.16,1.85-.16s.42.05.53.11c.16.11.21.32.21.47,0,.47-.42,1.06-1.11,1.42-.79.37-1.74.58-2.74.58-.47,0-.95-.05-1.37-.11-1.9-.37-4.27-1.9-5.38-2.96Zm9.02-17.68c0-.16-.05-.32-.05-.47,0-.21-.11-.32-.32-.32-.69,0-2.06,1-2.59,1.53-1.06,1.11-1.64,1.9-2.53,3.64-.84,1.64-1.21,3.01-1.53,4.43.53-.32,1-.69,1.42-1,3.59-2.69,5.59-5.54,5.59-7.81Z"/><path class="cls-2" d="m113.19,26.69c1.74,0,3.85.69,4.54,2.16.63,1.32.9,2.85.9,5.12v.47c.05,0,.11-.11.16-.11,1.85-.63,3.54-1.32,5.91-1.32,1.11,0,1.74.21,2,.26.74.21,1,.79.58,1.11-.42.32-1.21.47-2.32.79-2.32.63-4.75,1.58-6.44,2.48-.11,2.64-.37,5.07-.58,6.54-1.16,7.76-3.64,16.41-6.39,23.01-1.9,4.64-5.33,11.98-9.55,14.67-1.06.69-2.22,1-3.43,1s-2.38-.32-3.48-1.06c-2.22-1.48-3.32-4.48-3.32-8.07,0-.37.05-.79.05-1.21.37-5.12,2.06-9.76,4.12-14.14,2.06-4.38,6.81-11.56,11.03-15.73,2.06-2.06,4.96-4.54,7.86-6.33.05-.9.05-1.74.05-2.59s0-1.64-.05-2.48c-.11-1.16-.32-1.64-.53-1.74-.11-.05-.26-.11-.42-.11-.37,0-.9.21-1.58.79-2.38,2.06-4.75,5.86-6.97,9.87-2.69,4.75-3.17,5.44-3.96,6.33-.53.58-1.11.95-1.69.95h-.21c-1.32-.16-2.74-.74-3.48-1.69-.74-.95-1.16-2.96-1.16-5.17s.42-4.59,1.37-7.18c.63-1.85,1.79-4.22,2.59-4.8.58-.42,1.16-.63,1.79-.63.26,0,.63.05.9.11.79.16,1.48.47,1.64,1.05.05.16.05.37.05.53,0,.37-.11.79-.32,1.11-1.16,1.9-2.11,4.43-2.74,6.6-.53,1.9-.9,3.9-.9,4.8,0,.26.05.47.11.47.26,0,2.38-3.85,3.48-5.75,3.96-6.86,6.6-9.66,9.6-10.08.21,0,.42-.05.69-.05h.11Zm-2.06,16.47c-3.59,3.48-6.7,7.34-8.97,10.87-2.06,3.22-4.54,8.02-5.81,12.3-.9,3.01-1.42,5.75-1.42,8.13,0,1.11.16,2.16.37,3.17.32,1.27,1.16,2.9,2.53,2.9.42,0,.9-.16,1.42-.53,1.85-1.37,3.11-3.59,4.64-6.39,3.48-6.39,6.44-13.62,8.39-22.38.79-3.48,1.58-7.18,2.11-10.87-1.16.9-2.22,1.79-3.27,2.8Z"/><path class="cls-1" d="m159.2,1.84c.21.26.32.63.32.95,0,.58-.26,1.16-.42,1.53-.53,1.11-1.95,4.38-3.59,8.5-2.11,5.22-3.8,9.87-5.12,14.04,1.85-1.58,3.96-3.32,6.23-5.17,6.81-5.44,11.29-8.71,17.36-12.98,2.95-2.06,5.17-3.54,6.54-4.27.58-.32,1.16-.42,1.64-.42.26,0,.47.05.74.11.84.21,1.63.79,1.63,1.64,0,.95-1,1.48-2.59,2.59-2.43,1.74-4.85,3.38-7.49,5.33-6.17,4.54-11.87,9.02-17.78,13.88-3.9,3.22-7.23,6.33-8.39,7.86-.11.16-.26.37-.37.53-.21.95-.37,1.85-.53,2.8.53.69,1.69,1.42,3.64,2.32,3.75,1.69,9.76,3.8,13.4,5.91,1.11.63,2.69,1.58,2.69,2.37,0,.42-.26.74-.9.74-.37,0-.84-.11-1.53-.32-.95-.32-11.82-4.7-13.77-5.54-1-.42-2.69-1.27-4.12-2.06-.26,2.01-.42,3.91-.42,5.7,0,1.11.11,2.16.21,3.22.16,1.58.26,2.27.26,2.69v.32c-.05.37-.42.69-.95.69-.58,0-1.58-.63-2.32-1.16-.48-.32-1.06-.74-1.53-1.58-.84-1.43-1.16-4.38-1.16-6.65v-.32c0-6.81,2.85-17.89,6.6-27.81,2.32-6.23,5.12-12.56,6.33-14.56.79-1.27,1.37-1.64,2.43-1.69.16,0,.32-.05.47-.05,1.05,0,2.06.37,2.48.9Z"/></svg>