<?xml version="1.0" encoding="UTF-8"?><svg id="Layer_1" xmlns="http://www.w3.org/2000/svg" viewBox="0 0 191.44 37.11"><path d="m21.42,7.94c-.03,1.57-.3,3.1-.79,4.59-.26.77-.41,1.56-.54,2.36-.25,1.61-.55,3.22-.83,4.83-.01.08-.04.15-.05.23-.01.24-.16.58.12.68.34.12.31-.29.43-.48.7-1.09,1.37-2.23,2.76-2.58,1.27-.32,1.89.16,2.1,1.44.2,1.17.07,2.38.59,3.51.65,1.41,1.75,1.85,3.11,1.1.2-.11.42-.2.63-.3.67-.32.78-.62.81-1.35.03-.82-.01-1.67.42-2.42.13-.22.16-.47.19-.72.04-.33.12-.64.3-.93.45-.68,1.03-1.01,1.51-.86.84.27,1.48,1.18,1.46,1.96-.03,1.09-.6,1.95-1.18,2.78-.29.41-.34.95-.87,1.25-.28.15,0,.49.26.61.48.21.94.12,1.39-.13.93-.52,1.65-1.27,2.38-2.01.42-.43.8-.89,1.23-1.31.65-.63.91-1.42,1.01-2.28.3-2.46.9-4.83,2.19-6.98.15-.25.25-.52.33-.8.16-.53.72-.91,1.18-.83.43.08.74.61.68,1.2-.02.19-.07.38-.14.56-.27.65-.37,1.33-.48,2.02-.14.82-.47,1.61-.74,2.4-.29.82-.66,1.6-1.01,2.39-.15.34-.32.63-.53.94-.4.6-.5,1.32-.54,2.04-.02.48,0,.96,0,1.45,0,.74.18,1.4.9,1.74.68.32,1.3-.04,1.76-.46,1.33-1.2,2.62-2.46,3.65-3.95.22-.31.41-.68.46-1.05.15-1.13.68-2.18.79-3.3.14-1.38.78-2.53,1.44-3.67.37-.64.87-1.22,1.45-1.71.53-.45.85-.41,1.2.2.21.37.3.79.06,1.16-.52.81-.68,1.75-.98,2.63-.35,1.07-1.02,1.93-1.61,2.85-1.1,1.72-1.63,3.59-1.3,5.65.18,1.1.77,1.4,1.68.75.69-.5,1.3-1.09,1.94-1.65.14-.12.21-.28.22-.46.03-1,.65-1.76,1.11-2.57.28-.5.76-.84,1.39-.79.26.02.36-.1.48-.31.27-.47.57-.92.9-1.35.66-.88,1.89-1.04,2.8-.42.8.55,1.41,1.16,1.33,2.25-.05.68.16.82.81.55,1.27-.53,2.5-1.15,3.69-1.82.32-.18.63-.3.99-.24.29.05.52.18.57.49.05.32-.05.58-.34.73-.4.2-.8.37-1.22.53-1.39.49-2.68,1.21-4.09,1.65-.34.11-.53.34-.61.7-.12.56-.61.92-.89,1.41-.3.53-.75.94-1.05,1.5-.28.52-1,.61-1.5.95-.22.15-.46.29-.65.48-.79.75-1.78.84-2.67.21-.46-.32-.89-.68-1.11-1.23-.13-.31-.33-.33-.6-.15-.6.42-1.21.84-1.82,1.25-.6.4-1.18.35-1.68-.16-.62-.63-.94-1.4-.99-2.28-.01-.23.09-.58-.26-.61-.32-.02-.59.14-.66.52-.08.44-.32.75-.74.97-.62.33-1.12.83-1.57,1.36-.8.94-1.88,1-2.87.64-.84-.3-1.41-1.06-1.49-2.05-.03-.38-.14-.76-.19-1.14-.05-.33-.22-.4-.48-.25-.18.1-.38.23-.49.39-.61.97-1.63,1.52-2.41,2.32-.53.54-1.36.73-2.16.69-.6-.03-1.02-.43-1.44-.79-.29-.24-.42-.31-.74,0-.42.42-1.04.56-1.62.73-2.54.77-3.98-1.14-4.4-2.79-.19-.73-.3-1.47-.28-2.23,0-.25-.03-.5-.09-.74-.12-.48-.48-.62-.87-.31-.41.33-.88.56-1.3.86-.68.48-.94,1.28-1.12,2.03-.29,1.18-.44,2.38-.64,3.58-.1.6-.38.88-.89.85-.63-.04-.91-.33-.93-.96-.05-2.12,0-4.23.32-6.33.02-.13.04-.27.05-.4,0-.13.04-.29-.11-.36-.18-.09-.3.05-.39.17-.17.21-.35.42-.47.65-.58,1.16-1.37,2.18-2.22,3.15-1.33,1.52-2.69,3.05-4.26,4.32-2.41,1.94-5.1,3.29-8.34,3.14-.65-.03-1.27-.17-1.81-.56-.21-.15-.53-.32-.34-.64.2-.33.53-.5.94-.4.13.03.25.11.35.19.51.4,1.09.49,1.7.38,1.64-.31,3.18-.92,4.62-1.74,1.92-1.1,3.55-2.6,4.98-4.22.98-1.11,2.04-2.18,2.88-3.45,1.01-1.53,2.02-3.07,2.72-4.74.5-1.19,1.07-2.37,1.19-3.72.09-.95.44-1.87.51-2.84.03-.44.1-.89.03-1.33-.07-.43.03-.72.51-.8.48-.08.88.16.93.64.05.45,0,.92-.02,1.38Zm31.41,16.03c.46,0,.8-.24,1.15-.5.76-.57,1.47-1.19,2.12-1.88.17-.17.44-.33.29-.62-.13-.26-.42-.19-.63-.14-.52.12-.97,0-1.35-.33-.26-.23-.48-.5-.7-.77-.38-.47-.54-.46-.81.09-.18.37-.37.72-.62,1.04-.44.57-.68,1.19-.64,1.92.04.66.55,1.17,1.19,1.17Zm1.82-6.1c-.05,1.01.16,1.38.84,1.66.3.12,1.62-.19,1.85-.45.07-.08.12-.2.15-.3.25-.96-.31-2.1-1.21-2.49-.21-.09-.4-.05-.61.03-.77.31-1.07.9-1.01,1.54Z"/><path d="m134.94,15.6c.64-.02,1.11-.34,1.58-.63.39-.24.77-.35,1.21-.31.38.04.64-.11.9-.41.88-1.02,1.85-1.97,2.69-3.03.82-1.04,1.78-1.98,2.33-3.22.31-.69.83-1.25,1.23-1.89.14-.23.35-.39.63-.3.33.1.25.39.24.63,0,.37-.19.67-.42.93-.98,1.17-1.57,2.62-2.61,3.74-.79.85-1.39,1.84-2.11,2.74-.41.51-.89.89-1.41,1.24-.2.13-.35.29-.22.52.58,1.05.29,2.14.14,3.22-.09.67-.14,1.34.22,1.97.23.39.53.64.98.75,1.31.32,2.53,0,3.75-.43.18-.06.16-.15.12-.31-.78-2.58,1.7-5.46,3.62-6.18.78-.29,1.77.65,1.57,1.58-.18.86-.46,1.7-1.06,2.39-.31.36-.59.74-.72,1.29.62-.17,1.14-.46,1.57-.81,1.18-.97,2.44-1.84,3.51-2.94.45-.46.65-1.02.89-1.59.46-1.1.97-2.18,1.56-3.22,1.13-1.98,2.57-3.71,4.4-5.1.08-.06.14-.14.23-.18.26-.14.57-.26.82-.07.24.18.1.48.02.7-.27.73-.69,1.38-1.16,1.99-.56.74-.92,1.65-1.55,2.29-.7.72-1.09,1.62-1.79,2.34-1.09,1.12-2.02,2.49-2.06,4.2-.01.45.08.88.27,1.29.42.95,1.08,1.17,2.03.74,1.27-.57,2.36-1.42,3.43-2.26,1.73-1.36,3.38-2.83,5.06-4.25.27-.23.52-.57.96-.32.59.34.84.9.67,1.46-.42,1.34-.94,2.64-1.56,3.89-.07.15-.25.31-.13.47.11.16.33.09.49.07,1.24-.18,2.48-.47,3.73-.55,1.33-.09,2.04-.77,2.7-1.86.68-1.12,1.85-1.79,3.18-2.04.7-.13.88,0,1.18.79.19.5.25,1.05-.28,1.35-1.18.67-2.11,1.8-3.56,1.99-.34.05-.29.36-.28.61.02.26.14.44.44.43.52,0,.97-.17,1.4-.48,1.29-.9,2.47-1.93,3.69-2.9.16-.13.33-.43.58-.25.28.19.55.43.55.84,0,.32-.08.61-.22.89-.27.57-.3,1.12.16,1.61.46.48,1.04.47,1.62.31.43-.12.85-.27,1.25-.46.49-.22.87-.57.99-1.13.13-.61.44-1.14.7-1.71.3-.68.57-1.38.7-2.12.07-.38.07-.88.66-.85.57.03.74.42.76.91.08,1.66-.13,3.22-1.41,4.46-.43.41-.73.89-.72,1.52,0,.2-.11.41-.18.61-.03.09-.14.21-.12.25.51.89-.32,1.5-.52,2.21-.52,1.81-1.11,3.61-1.82,5.36-.53,1.31-1.1,2.63-1.81,3.87-.6,1.05-1.07,2.2-2.05,2.99-1.82,1.46-3.79,2.28-6.18,1.57-1.41-.42-2.27-1.49-2.82-2.67-1.37-2.92-.49-5.36,1.71-7.11,1.73-1.38,3.57-2.54,5.69-3.27,1.66-.57,3.29-1.27,4.95-1.84.27-.09.55-.2.83-.27.57-.15.76-.61.93-1.09.06-.16,0-.3-.13-.42-.16-.14-.32-.08-.48,0-.63.31-1.26.52-2,.51-1.35-.02-2.12-1.26-1.95-2.42.03-.21.21-.48-.07-.63-.26-.13-.39.17-.58.28-1.13.65-1.83,1.84-3.07,2.35-.05.02-.1.06-.15.09-1.03.54-1.88.33-2.36-.7-.3-.63-.61-.8-1.33-.7-1.55.22-3.11.39-4.66.64-1.04.17-1.96.57-2.82,1.16-.97.66-2.61.58-3.52-.17-.28-.23-.27-.48-.17-.78.09-.29.27-.49.59-.43,1.13.21,2.18-.23,3.27-.38.54-.08.84-.51,1.07-.91.58-1.01,1.38-1.91,1.7-3.06.01-.04.03-.07.04-.11.06-.24.19-.53-.07-.69-.25-.15-.43.11-.58.27-1.32,1.45-3,2.49-4.47,3.76-1.14.97-2.44,1.89-3.86,2.53-1.24.56-2.41.05-2.85-1.23-.16-.47-.3-.96-.31-1.47,0-.16.06-.38-.15-.46-.2-.07-.39.05-.52.19-.51.54-1.13.94-1.69,1.41-.72.6-1.46,1.16-2.36,1.54-.67.28-1.3.59-2.03.65-.91.07-1.63.65-2.45.96-.95.37-1.91.24-2.86.31-.36.02-.73-.07-1.1-.12-.39-.05-.78-.11-.89-.59-.02-.08-.1-.18-.18-.22-.95-.5-.83-1.4-.81-2.22.02-.81.16-1.61.23-2.41.02-.26.02-.53-.27-.64-.25-.09-.38.14-.52.29-.69.72-1.54,1.23-2.4,1.72-.13.07-.3.14-.44.12-.68-.07-1,.42-1.1.9-.22,1.06-.91,1.86-1.37,2.79-.09.19-.22.36-.3.56-.17.43-.5.55-.89.41-.46-.17-.41-.59-.28-.93.18-.44.39-.89.67-1.28.84-1.17,1.52-2.4,1.96-3.78.35-1.08.88-2.1,1.25-3.17.64-1.87,1.37-3.72,1.89-5.64.34-1.26.92-2.45,1.1-3.77.07-.54.41-.99.82-1.37.35-.33.75-.36,1.1-.05.38.33.06.61-.16.88-.45.59-.77,1.24-.91,1.98-.12.63-.5,1.15-.68,1.77-.38,1.29-.9,2.53-1.32,3.81-.42,1.28-.86,2.55-1.37,3.86Zm32.95,15.63c0,.31-.06.62-.01.92.46,3.42,3.14,4.81,5.99,3.58,1.61-.7,2.76-2.03,3.58-3.59.45-.85.81-1.75,1.25-2.6.98-1.86,1.56-3.85,2.13-5.85.06-.22.04-.46.05-.69.01-.45-.19-.57-.57-.34-.3.18-.62.31-.95.42-1.71.56-3.42,1.12-5.06,1.86-1.59.72-3.08,1.62-4.47,2.68-1.21.92-1.92,2.08-1.94,3.61Zm-20.14-15.08c-.26.03-.51.11-.7.33-.24.28-.54.49-.8.74-.56.53-.95,1.21-1.22,1.93-.1.25-.18.66.13.84.35.2.67,0,.9-.3.29-.37.65-.66.99-.97.58-.53.95-1.2,1.2-1.94.15-.43-.06-.61-.5-.62Zm27.09-.49c0-.35-.07-.45-.3-.44-.68.01-1.69.88-1.84,1.55-.05.22,0,.3.22.24.72-.21,1.26-.71,1.84-1.15.06-.05.06-.17.07-.2Zm-18.51-4.1c.07-.04.19-.08.26-.16.33-.39.66-.79.98-1.19.11-.14.19-.32,0-.46-.18-.13-.33,0-.46.12-.42.41-.6.97-.93,1.44-.07.1-.06.22.14.26Z"/><path d="m83.66,22.24c.59.11,1.07-.21,1.57-.45,1.59-.77,3.13-1.62,4.54-2.69.4-.31.67-.69.75-1.24.24-1.49.86-2.86,1.44-4.24.33-.78.69-1.55,1.03-2.32.37-.85.91-1.6,1.35-2.41.63-1.17,1.34-2.3,2.13-3.38,1.46-2,3.06-3.87,5.13-5.29.42-.29,1.24-.27,1.6.03.4.33.69,1.16.46,1.57-1.05,1.87-1.55,3.99-2.64,5.84-.58.98-1.34,1.83-1.94,2.79-.03.05-.08.09-.11.13-.37.58-.75,1.13-1.22,1.66-.58.66-1.15,1.38-1.73,2.05-1.02,1.17-1.92,2.47-3.25,3.36-.52.35-.78.95-1.2,1.41-.13.15-.17.34-.11.54.03.09.04.19.07.28.53,1.84,1.47,2.29,3.33,1.48,1-.43,1.96-.94,2.75-1.7.19-.18.47-.42.69-.12.23.3.04.57-.27.76-.6.36-1.13.81-1.6,1.33-.17.19-.39.31-.63.4-.38.14-.78.26-1.12.47-1.53.97-3.06.1-3.96-1.06-.15-.19-.19-.41-.23-.65-.1-.61-.16-.63-.77-.42-.84.3-1.45.95-2.17,1.43-1.04.7-2.12,1.28-3.33,1.6-1.45.39-2.51-.15-3.19-1.47-.45-.87-.42-1.79-.57-2.69-.1-.56-.29-1.03-.75-1.38-.17-.13-.29-.31-.44-.46-.21-.22-.35-.46-.2-.78.15-.34.39-.62.78-.6,1.88.1,3.73-.44,5.61-.28.41.03.81.09.83.61.01.35-.59.68-1.03.64-1.08-.1-2.16.07-3.23.11-.36.01-.54.2-.43.63.22.8.31,1.63.34,2.46.02.55.14,1.07.49,1.52.3.39.66.66,1.21.55Zm7.96-4.78c.14-.07.19-.09.24-.12.82-.41,1.15-1.29,1.77-1.89,2.51-2.43,4.71-5.1,6.42-8.14.34-.6.8-1.12,1.04-1.79.39-1.08.86-2.13,1.31-3.19.12-.28.25-.54.06-.81-.18-.26-.46-.25-.74-.22-.33.03-.47.22-.49.54,0,.16-.12.28-.23.39-.46.47-.89.97-1.39,1.4-.64.55-1.35,1.01-1.53,1.92-.02.12-.15.22-.24.32-.43.42-.77.91-1.07,1.43-.45.78-.91,1.57-1.4,2.33-1.35,2.07-2.61,4.17-3.38,6.53-.13.41-.24.83-.38,1.32Z"/><path d="m115.59,21.14c.03-.31.06-.61.07-.92,0-.13,0-.29-.16-.34-.16-.05-.27.07-.33.18-.54,1.08-1.58,1.73-2.28,2.67-.16.22-.36.4-.59.55-.65.45-1.23.2-1.35-.59-.1-.7.29-1.24.61-1.76.47-.77.78-1.58,1.07-2.42.12-.34-.01-.37-.29-.33-.18.02-.34.05-.48.18-.98.96-1.88,1.99-2.71,3.08-.27.36-.55.7-.84,1.03-.32.36-.77.48-1.22.31-.45-.17-.36-.62-.29-.96.19-.93.39-1.87.88-2.71.07-.13.1-.29.13-.44.04-.23.1-.46.25-.64.22-.28.44-.59.86-.33.39.24.32.57.13.9-.11.2-.25.39-.34.6-.09.21-.15.48.09.63.27.16.35-.13.49-.28.98-1.08,1.87-2.26,3.13-3.07.41-.26.73-.25,1.1.03.28.21.3.47.31.77.07,1.16-.29,2.2-.91,3.17-.06.1-.13.19-.18.3-.05.12-.1.27.02.38.12.11.27.05.37-.02.36-.26.69-.55.97-.91.74-.94,1.48-1.88,2.23-2.81.34-.43.88-.31,1.07.23.15.43,0,.83-.16,1.23-.41,1.04-.49,2.14-.4,3.24.07.94.55,1.24,1.47,1.02.42-.1.79-.31,1.11-.6.14-.13.28-.27.43-.39.2-.18.4-.39.71-.29.17.06.23.2.23.37,0,.33-.13.61-.45.75-.55.24-.97.58-1.28,1.12-.25.43-1.43.45-2.06.13-.98-.49-1.27-1.37-1.39-2.35-.03-.23,0-.46.01-.69-.01,0-.03,0-.04,0Z"/><path d="m70.25,7.33c0,.92-.4,1.75-.6,2.62-.4,1.75-.74,3.49-.57,5.3.04.38-.49,1.25-.81,1.4-.53.25-1.08-.07-1.02-.65.08-.84.24-1.67.36-2.51.03-.19.1-.37.12-.56.13-1.72.51-3.37,1.36-4.89.21-.37.18-.78.18-1.19,0-.27-.03-.57.37-.6.39-.02.57.19.6.55.01.17,0,.35.01.52Z"/><path d="m109.83,8.19c.03.6-.27,1.26-.69,1.87-.55.81-1.07,1.64-1.63,2.45-.17.24-.35.6-.72.4-.37-.2-.49-.59-.4-1,.08-.36.27-.68.5-.97.49-.62,1-1.22,1.3-1.97.21-.52.06-.75-.5-.68-.36.04-.72.15-1.08.23-.25.06-.5.1-.74-.02-.24-.12-.52-.22-.53-.55-.02-.33.22-.47.48-.58.97-.41,2.02-.5,3.05-.62.67-.08,1,.44.96,1.43Z"/><path d="m66.72,21.25c.41.09.98.03,1.17.62.09.29-.82.99-1.32,1.07-.44.07-.76-.12-.95-.49-.17-.34-.08-.68.17-.96.23-.26.56-.22.93-.23Z"/><path d="m190.61,21.89c-.71-.03-1.19-.45-1.19-.96,0-.36.52-.83.91-.82.47.01,1.16.72,1.11,1.16-.06.57-.45.65-.83.62Z"/></svg>